<svg width="22" height="19" xmlns="http://www.w3.org/2000/svg">
 <!-- Generator: Sketch 48.2 (47327) - http://www.bohemiancoding.com/sketch -->
 <title>2</title>
 <desc>Created with Sketch.</desc>

 <g>
  <title>background</title>
  <rect fill="none" id="canvas_background" height="21" width="24" y="-1" x="-1"/>
 </g>
 <g>
  <title>Layer 1</title>
  <path d="m7.61765,2.980399c-0.098039,0 -0.098039,0 -0.196078,0c0,0 0,0 -0.098039,0c0,0 -0.098039,0 -0.196078,0c0,0 -0.098039,0 -0.098039,0c-0.098039,0 -0.196078,0 -0.294117,0c-0.098039,0 -0.224793,0.069324 -0.294117,0c-0.069324,-0.069324 -0.098039,-0.098039 -0.196078,-0.098039c-0.098039,0 -0.196078,0 -0.294117,0c-0.098039,0 -0.098039,0 -0.196078,0c-0.098039,0 -0.196078,0 -0.196078,0c-0.098039,0 -0.196078,0 -0.196078,0c-0.196078,0 -0.211004,-0.075036 -0.392156,0c-0.128094,0.053058 -0.196078,0.196078 -0.294117,0.196078c-0.098039,0 -0.105502,0.060521 -0.196078,0.098039c-0.128094,0.053058 -0.196078,0.196078 -0.392156,0.392156c-0.098039,0.098039 -0.339098,0.166023 -0.392156,0.294117c-0.037518,0.090576 -0.098039,0.098039 -0.196078,0.196078c-0.098039,0.098039 -0.224793,0.126754 -0.294117,0.196078c-0.069324,0.069324 -0.098039,0.196078 -0.196078,0.294117c-0.098039,0.098039 -0.126754,0.224793 -0.196078,0.294117c-0.069324,0.069324 -0.126754,0.028715 -0.196078,0.098039c-0.069324,0.069324 -0.14302,0.264062 -0.196078,0.392156c-0.037518,0.090576 -0.028715,0.126754 -0.098039,0.196078c-0.069324,0.069324 -0.098039,0.098039 -0.098039,0.196078c0,0.098039 -0.098039,0.294117 -0.098039,0.392156c0,0.098039 0,0.196078 0,0.294117c0,0.098039 0,0.196078 0,0.294117c0,0 0,0.098039 0,0.196078c0,0.098039 0,0.196078 0,0.294117c0,0.098039 0,0.196078 0,0.294117c0,0.196078 0,0.294117 0,0.392157c0,0.098039 0,0.196078 0,0.294117c0,0.09804 0,0.196078 0,0.294117c0,0.09804 0.098039,0.09804 0.098039,0.196078c0,0.09804 0.044981,0.166023 0.098039,0.294118c0.037518,0.090576 0.098039,0.196077 0.098039,0.196077c0.098039,0 0.14302,0.067985 0.196078,0.196078c0.037518,0.090577 0.067897,0.214314 0.196078,0.392157c0.081069,0.112477 0.107636,0.276905 0.294117,0.392157c0.083397,0.051542 0.15856,0.105501 0.196078,0.196078c0.053058,0.128094 0.115009,0.18164 0.196078,0.294117c0.128181,0.177842 0.196078,0.294117 0.294117,0.392157c0.098039,0.098039 0.067897,0.214314 0.196078,0.392156c0.081069,0.112477 0.263976,0.214314 0.392157,0.392157c0.081069,0.112477 0.263975,0.312353 0.392156,0.490195c0.162138,0.224955 0.294118,0.294118 0.490195,0.490195c0.098039,0.09804 0.166023,0.241059 0.294117,0.294118c0.090576,0.037519 0.196078,0.098039 0.294117,0.196078c0.098039,0.098039 0.186895,0.206215 0.294117,0.294117c0.273365,0.224106 0.510948,0.266089 0.784313,0.490195c0.214445,0.175803 0.410392,0.263975 0.588234,0.392157c0.112477,0.081069 0.203541,0.158561 0.294117,0.196078c0.128094,0.053058 0.196078,0.196078 0.294117,0.294117c0.09804,0.098039 0.225363,0.092994 0.392157,0.196078c0.186481,0.115252 0.312353,0.263974 0.490195,0.392156c0.112478,0.081069 0.312352,0.165936 0.490195,0.294118c0.112477,0.081069 0.178799,0.243751 0.392157,0.294118c0.095416,0.022524 0.203541,0.06052 0.294117,0.098038c0.256189,0.106117 0.312354,0.165936 0.490196,0.294117c0.112477,0.08107 0.196077,0.09804 0.294117,0.09804c0,0 0.028714,0.028715 0.098039,0.09804c0.069324,0.069324 0.196078,0 0.392157,0c0.098039,0 0.196078,0 0.294117,0c0.09804,0 0.178799,-0.145712 0.392157,-0.196079c0.095416,-0.022524 0.196078,-0.098038 0.294117,-0.196077c0.09804,-0.09804 0.196078,-0.196077 0.392157,-0.392157c0.098039,-0.098039 0.237144,-0.237143 0.392157,-0.392157c0.155012,-0.155013 0.294117,-0.294117 0.392156,-0.392156c0.09804,-0.09804 0.203541,-0.15856 0.294118,-0.196078c0.128094,-0.053059 0.196078,-0.196078 0.294117,-0.294117c0.098039,-0.09804 0.214314,-0.165936 0.392157,-0.294118c0.112476,-0.081069 0.126754,-0.126754 0.196078,-0.196078c0.069324,-0.069324 0.105501,-0.060521 0.196077,-0.098039c0.128095,-0.053058 0.196078,-0.098039 0.294118,-0.196078c0.098039,-0.098039 0.214314,-0.165936 0.392156,-0.294117c0.112478,-0.08107 0.196078,-0.196077 0.294118,-0.294117c0.098039,-0.09804 0.158561,-0.203541 0.196078,-0.294118c0.053059,-0.128094 0.196077,-0.098039 0.294117,-0.196078c0.09804,-0.098039 0.105503,-0.15856 0.196077,-0.196077c0.128096,-0.053059 0.165937,-0.214314 0.294119,-0.392157c0.081068,-0.112477 0.098038,-0.196078 0.196077,-0.294117c0.09804,-0.09804 0.15856,-0.203541 0.196077,-0.294118c0.053059,-0.128094 0.213049,-0.18164 0.294119,-0.294117c0.128181,-0.177842 0.126753,-0.322832 0.196077,-0.392157c0.069324,-0.069324 0.213047,-0.18164 0.294117,-0.294117c0.128181,-0.177842 0.173555,-0.29674 0.196079,-0.392157c0.050365,-0.213357 0.241058,-0.264062 0.294117,-0.392156c0.037518,-0.090577 0.067896,-0.214314 0.196077,-0.392157c0.08107,-0.112478 0.121044,-0.211003 0.196079,-0.392157c0.053057,-0.128093 0.173553,-0.198701 0.196077,-0.294117c0.050367,-0.213358 0.196077,-0.294118 0.196077,-0.392157c0,-0.098039 0.09804,-0.294117 0.09804,-0.392157c0,-0.196078 0,-0.392156 0,-0.588234c0,-0.098039 0,-0.196078 0,-0.294117c0,-0.098039 0,-0.196078 0,-0.294117c0,-0.098039 0,-0.196078 0,-0.294117c0,0 0,-0.098039 0,-0.196078c0,-0.098039 -0.044981,-0.166023 -0.09804,-0.294117c-0.037518,-0.090576 -0.044981,-0.166023 -0.098038,-0.294117c-0.075035,-0.181153 -0.044981,-0.264062 -0.09804,-0.392157c-0.037518,-0.090576 0.069324,-0.224793 0,-0.294117c-0.069324,-0.069324 -0.023005,-0.112965 -0.09804,-0.294117c-0.053057,-0.128094 -0.126753,-0.126754 -0.196077,-0.196078c-0.138647,-0.138648 -0.075514,-0.29674 -0.09804,-0.392156c-0.050367,-0.213358 -0.143021,-0.264063 -0.196077,-0.392156c-0.037518,-0.090576 -0.09804,-0.098039 -0.09804,-0.196078c0,-0.098039 0,-0.098039 0,-0.098039c-0.09804,0 -0.09804,-0.09804 -0.196077,-0.196078c-0.09804,-0.09804 -0.294119,-0.098039 -0.392157,-0.196078c0,0 0,-0.098039 -0.09804,-0.098039c-0.09804,0 -0.09804,-0.098039 -0.196077,-0.098039c-0.09804,0 -0.196079,0 -0.196079,0c-0.09804,0 -0.294117,-0.098039 -0.392157,-0.098039c0,0 -0.196077,-0.098039 -0.294117,-0.098039c-0.196077,0 -0.294117,-0.098039 -0.392157,-0.098039c-0.098038,0 -0.098038,-0.098039 -0.196077,-0.098039c-0.09804,0 -0.196078,0 -0.294118,0c-0.098039,0 -0.196078,0 -0.294117,0c-0.098039,0 -0.196078,0 -0.196078,0c-0.098039,0 -0.196078,0 -0.294117,0c-0.09804,0 -0.196078,0 -0.196078,0c-0.098039,0 -0.196078,0 -0.294117,0c-0.09804,0 -0.09804,0 -0.196078,0c-0.09804,0 -0.196078,0 -0.294117,0c0,0 -0.178799,0.047672 -0.392157,0.098039c-0.190833,0.04505 -0.224792,0.028715 -0.294117,0.098039c-0.069324,0.069324 -0.126754,0.028715 -0.196078,0.098039c-0.069324,0.069324 -0.126755,0.028715 -0.196078,0.098039c-0.069324,0.069324 -0.028715,0.028715 -0.09804,0.098039c-0.069324,0.069324 -0.196077,0 -0.196077,0.098039c0,0.098039 -0.115009,0.083601 -0.196078,0.196078c-0.128181,0.177843 -0.166023,0.339098 -0.294118,0.392156c-0.090576,0.037518 -0.126754,0.028715 -0.196078,0.098039c-0.069324,0.069324 0.069324,0.126754 0,0.196078c-0.069324,0.069324 -0.098039,0.098039 -0.196077,0.098039c0,0 -0.028715,0.028715 -0.09804,0.098039c-0.069324,0.069324 -0.028714,0.126754 -0.098039,0.196078c-0.069324,0.069324 -0.196078,0 -0.294118,0.098039c0,0 -0.098039,0.098039 -0.196077,0.098039c-0.09804,0 -0.196078,0 -0.196078,0c-0.09804,0 -0.196078,0 -0.196078,0c-0.098039,0 -0.098039,0.098039 -0.196078,0.098039c0,0 0,-0.09804 -0.098039,-0.196078c-0.09804,-0.098039 -0.294118,-0.294117 -0.392157,-0.392156c-0.09804,-0.098039 -0.322832,-0.126754 -0.392157,-0.196078c-0.069324,-0.069324 -0.06052,-0.105502 -0.098039,-0.196078c-0.053059,-0.128095 -0.237144,-0.041065 -0.392157,-0.196078c-0.155013,-0.155013 -0.294117,-0.196078 -0.392157,-0.294117c-0.098039,-0.098039 -0.196078,-0.098039 -0.294117,-0.196078c-0.09804,-0.098039 -0.166023,-0.14302 -0.294117,-0.196078c-0.090577,-0.037518 -0.196078,0 -0.294117,0c-0.098039,0 -0.098039,0 -0.098039,0c-0.098039,0 -0.196078,0 -0.294117,0c-0.098039,0 -0.098039,0 -0.196078,0c-0.098039,0 -0.098039,0 -0.196078,0c-0.098039,0 -0.196078,0 -0.294117,0c-0.098039,0 -0.196078,0.098039 -0.294117,0.098039c-0.196078,0 -0.397402,0.052989 -0.588235,0.098039c-0.213357,0.050367 -0.508431,0.067897 -0.686274,0.196078c-0.112477,0.081069 -0.322832,0.028715 -0.392156,0.098039c-0.069324,0.069324 -0.098039,0.196078 -0.294117,0.294117c-0.196078,0.098039 -0.279679,0.311087 -0.392156,0.392156c-0.177842,0.128181 -0.263975,0.214314 -0.392156,0.392157c-0.081069,0.112477 -0.263975,0.214314 -0.392156,0.392156c-0.162138,0.224955 -0.482118,0.332046 -0.588234,0.588234c-0.037518,0.090576 -0.098039,0.098039 -0.098039,0.196078c0,0.098039 -0.098039,0.098039 -0.098039,0.294117c0,0.098039 -0.098039,0.196078 -0.098039,0.294117c0,0.098039 0.04505,0.201324 0,0.392157c-0.050367,0.213357 -0.165613,0.301985 -0.098039,0.588234c0.050367,0.213357 0.210224,0.3857 0.294117,0.588234c0.118642,0.286427 0.308264,0.483739 0.392156,0.686274c0.118642,0.286427 0.214733,0.47858 0.392156,0.784312c0.110034,0.189608 0.165936,0.410393 0.294117,0.588235c0.081069,0.112477 0.165936,0.214314 0.294117,0.392157c0.081069,0.112477 0.237143,0.237143 0.392156,0.392156c0.155014,0.155013 0.312354,0.263975 0.490196,0.392157c0.224955,0.162138 0.36328,0.328057 0.588234,0.490195c0.177842,0.128181 0.294116,0.196078 0.392156,0.294118c0.098039,0.098039 0.18164,0.213048 0.294117,0.294117c0.177843,0.128181 0.294117,0.294117 0.392156,0.392157c0.098039,0.098039 0.214314,0.165936 0.392157,0.294117c0.112477,0.081069 0.284934,0.206216 0.392156,0.294117c0.273365,0.224106 0.520589,0.229166 0.784313,0.392157c0.235882,0.145783 0.294117,0.294117 0.490195,0.392157c0.196078,0.098039 0.276837,0.243751 0.490195,0.294117c0.095416,0.022525 0.264062,0.14302 0.392157,0.196078c0.090576,0.037518 0.126755,0.028715 0.196078,0.098039c0.069324,0.069324 0.29674,0.075515 0.392156,0.09804c0.213358,0.050366 0.309044,0.121042 0.490196,0.196078c0.128094,0.053059 0.166022,0.14302 0.294117,0.196078c0.090576,0.037518 0.196078,0 0.294117,0c0.098039,0 0.196078,0 0.294117,0c0.196078,0 0.312353,0.030142 0.490195,-0.09804c0.112477,-0.081069 0.37379,-0.216353 0.588235,-0.392157c0.273365,-0.224106 0.490195,-0.392156 0.686274,-0.588234c0.196078,-0.196078 0.412432,-0.275751 0.588235,-0.490195c0.224106,-0.273365 0.410392,-0.460053 0.588234,-0.588235c0.224955,-0.162138 0.364129,-0.412909 0.588235,-0.686274c0.087901,-0.107222 0.263975,-0.312352 0.392157,-0.490195c0.081069,-0.112477 0.196077,-0.294118 0.294117,-0.392157c0.196078,-0.196077 0.294117,-0.392157 0.392157,-0.490195c0.196077,-0.196077 0.196079,-0.294116 0.392157,-0.490195c0.098038,-0.098039 0.196077,-0.294117 0.294117,-0.490195c0.09804,-0.196078 0.184084,-0.300589 0.294117,-0.490196c0.177423,-0.305732 0.273514,-0.399846 0.392157,-0.686274c0.083893,-0.202534 0.164669,-0.394688 0.196077,-0.588234c0.049662,-0.306024 0.09804,-0.490196 0.09804,-0.882352c0,-0.294117 0.020601,-0.595924 -0.09804,-0.882352c-0.083893,-0.202535 -0.241058,-0.264061 -0.294117,-0.392156c-0.037518,-0.090576 -0.115009,-0.181641 -0.196077,-0.294117c-0.128181,-0.177843 -0.165936,-0.410392 -0.294117,-0.588234c-0.162138,-0.224956 -0.392157,-0.294117 -0.588236,-0.490195c-0.196077,-0.196078 -0.392156,-0.294117 -0.588234,-0.392157c-0.196078,-0.098039 -0.494246,-0.083061 -0.882352,-0.196078c-0.297663,-0.08668 -0.689212,-0.145954 -1.07843,-0.098039c-0.401196,0.04939 -0.792002,0.175475 -1.078429,0.294117c-0.202535,0.083893 -0.37379,0.216354 -0.588235,0.392157c-0.273364,0.224105 -0.490195,0.392156 -0.784313,0.686274c-0.196077,0.196078 -0.426096,0.461319 -0.588234,0.686274c-0.128181,0.177842 -0.166023,0.339097 -0.294117,0.392156c-0.090577,0.037518 -0.372046,-0.413746 -0.686274,-0.686274c-0.37032,-0.321177 -0.745727,-0.64206 -1.274508,-0.980391c-0.369317,-0.236301 -0.668994,-0.439828 -0.882352,-0.490195c-0.095417,-0.022525 -0.196078,0 -0.294117,0c-0.098039,0 -0.203946,-0.067574 -0.490196,0c-0.213358,0.050367 -0.490195,0.098039 -0.686274,0.196078c-0.196078,0.098039 -0.373789,0.216353 -0.588234,0.392156c-0.273365,0.224105 -0.608987,0.364129 -0.882352,0.588234c-0.214445,0.175803 -0.328057,0.36328 -0.490195,0.588235c-0.128181,0.177842 -0.24004,0.471141 -0.392156,0.882352c-0.140244,0.379117 -0.196078,0.686273 -0.196078,0.980391c0,0.098039 0,0.196078 0,0.392156c0,0.196078 0,0.392157 0,0.490195c0,0.09804 0.098039,0.196078 0.196078,0.294118c0.098039,0.098039 0.364606,0.422569 0.686273,0.686274c0.54673,0.448212 1.07843,0.784312 1.470586,1.078429c0.392157,0.294118 0.857139,0.622016 1.372548,0.980392c0.469352,0.326351 1.001143,0.462168 1.274508,0.686274c0.214445,0.175803 0.426097,0.265241 0.588235,0.490195c0.128181,0.177842 0.311088,0.279678 0.392157,0.392157c0.128181,0.177842 0.098039,0.294117 0.196078,0.490195c0.098039,0.196078 0.067896,0.508431 0.196077,0.686274c0.081069,0.112477 0.09804,0.196078 0.196078,0.294117c0.09804,0.09804 0.158561,0.105502 0.196078,0.196078c0.053059,0.128095 0.264063,0.241058 0.392157,0.294117c0.090576,0.037518 0.196078,0 0.392157,0c0.098039,0 0.196077,0 0.294117,0c0.098039,0 0.294117,0 0.392157,-0.098039c0,0 0,0.098039 0,0.196078c0,0.098039 0,0.098039 0,0.098039c0.196077,-0.196078 0.303714,-0.374944 0.490195,-0.490195c0.083397,-0.051542 0.030142,0.018236 -0.09804,0.196078c-0.162138,0.224955 -0.362101,0.339098 -0.490195,0.392157c-0.181152,0.075036 -0.294117,0.098039 -0.490195,0.098039c-0.098039,0 -0.294118,0.196078 -0.196078,0.196078c0.09804,0 0.279485,-0.314711 0.686274,-0.588235c0.474392,-0.31898 0.980392,-0.588234 1.470587,-0.882352c0.490195,-0.294117 0.980391,-0.490195 1.274508,-0.784312c0.294118,-0.294117 0.60851,-0.471828 0.784313,-0.686274c0.224106,-0.273365 0.364128,-0.510947 0.588234,-0.784312c0.263705,-0.321668 0.462169,-0.510948 0.686275,-0.784313c0.175802,-0.214444 0.311087,-0.279678 0.392157,-0.392157c0.128181,-0.177842 0.196077,-0.294117 0.294117,-0.392156c0.196077,-0.196077 0.339098,-0.264063 0.392157,-0.392157c0.037518,-0.090576 0.098038,-0.196078 0.196077,-0.392157c0.09804,-0.196078 0.196077,-0.294117 0.294117,-0.490195c0.09804,-0.196078 0.196077,-0.392157 0.294117,-0.588235c0.09804,-0.196078 0.066631,-0.394688 0.09804,-0.588234c0.049662,-0.306024 0.09804,-0.588235 0.09804,-0.784313c0,-0.196078 -0.09804,-0.392157 -0.09804,-0.490195c0,-0.196078 -0.09804,-0.392157 -0.196077,-0.588235c-0.09804,-0.196078 -0.24106,-0.264061 -0.294119,-0.392156c-0.112555,-0.271729 -0.098038,-0.490196 -0.196077,-0.686274c-0.09804,-0.196078 -0.173552,-0.29674 -0.196077,-0.392157c-0.050367,-0.213357 -0.165937,-0.312353 -0.294119,-0.490195c-0.081068,-0.112477 -0.264061,-0.241059 -0.392155,-0.294117c-0.090576,-0.037519 -0.09804,-0.098039 -0.196079,-0.098039c-0.09804,0 -0.166021,-0.044981 -0.294117,-0.098039c-0.090576,-0.037518 -0.211002,-0.075037 -0.392157,0c-0.128094,0.053058 -0.244381,0.296503 -0.196078,0.784313c0.049259,0.49747 0.294118,0.882352 0.490195,1.274508c0.196079,0.392157 0.422569,0.756763 0.686274,1.07843c0.224106,0.273365 0.24106,0.460141 0.294117,0.588234c0.037518,0.090577 0.048378,0.38025 0.09804,0.686274c0.047113,0.29032 0.042206,0.699313 -0.09804,1.07843c-0.152117,0.41121 -0.259691,0.705467 -0.490194,1.07843c-0.25771,0.416985 -0.661446,0.72268 -1.07843,0.980391c-0.372963,0.230504 -0.784313,0.490195 -1.176469,0.686274c-0.392157,0.196078 -0.656219,0.339098 -0.784313,0.392157c-0.090576,0.037518 -0.098039,-0.09804 0.09804,-0.588235c0.196078,-0.490195 0.419517,-1.195205 0.686274,-2.058821c0.311627,-1.008881 0.586433,-1.736468 0.686274,-2.254899c0.0927,-0.48135 0,-0.980391 0,-1.372547c0,-0.294117 -0.119754,-0.507905 -0.196078,-0.392156c-0.290635,0.44076 -0.465137,1.091467 -0.882352,1.862742c-0.648026,1.197962 -1.194059,2.443005 -1.764704,3.725485c-0.303531,0.682162 -0.424608,0.974864 -0.392157,0.882352c0.207792,-0.592369 0.822588,-1.256512 1.17647,-2.058821c0.55108,-1.24939 0.783356,-2.332375 0.882352,-3.039212c0.054393,-0.388366 -0.180204,-0.731912 -0.686274,-0.882352c-0.479179,-0.142446 -0.89022,-0.165614 -1.17647,-0.098039c-0.213358,0.050367 -0.511817,0.473654 -0.882352,0.980391c-0.417291,0.570679 -1.001826,1.43088 -1.274508,2.450977c-0.179024,0.669726 -0.137844,1.128725 0.098039,1.274508c0.263725,0.162991 1.658653,-0.321712 2.254899,-1.176469c0.702807,-1.007519 0.980392,-2.15686 0.980392,-2.941173c0,-0.490196 -0.171282,-0.942844 -0.588235,-1.07843c-0.567118,-0.184417 -1.291859,-0.162237 -1.764704,0c-0.414712,0.142291 -0.572694,0.467603 -0.588234,0.686274c-0.021977,0.309247 0.386074,0.539048 0.980391,0.588234c0.78164,0.06469 1.598741,0.030485 2.254899,-0.490195c0.553795,-0.439452 0.738305,-1.108281 0.588234,-1.470586c-0.053058,-0.128094 -0.304789,-0.176549 -0.588234,-0.098039c-0.550919,0.152596 -0.855292,0.610071 -1.176469,0.980391c-0.36337,0.418969 -0.657559,0.813028 -0.588235,0.882352c0.207973,0.207972 0.904405,0.081189 1.764704,-0.196078c0.710647,-0.229036 1.251505,-0.701199 1.176469,-0.882352c-0.053058,-0.128094 -0.588235,-0.196078 -1.372547,-0.196078c-1.274508,0 -2.988489,0.147095 -4.411758,0.686274c-0.820019,0.310648 -1.07843,0.686274 -1.07843,0.882352c0,0.294117 0.386932,0.539091 1.07843,0.588234c0.782339,0.055599 1.741559,-0.051752 1.960781,-0.490195c0.175377,-0.350755 0.018724,-0.717787 -0.294117,-0.882352c-0.467253,-0.24579 -1.372547,-0.294117 -2.352939,-0.294117c-0.980391,0 -1.848148,0.439736 -2.05882,0.882352c-0.173725,0.36499 -0.190905,0.874805 0.098039,1.07843c0.33042,0.232853 1.035099,0.286505 1.568625,-0.098039c0.562387,-0.405345 0.918066,-1.170422 0.882352,-1.862742c-0.020825,-0.403689 -0.583012,-0.637131 -1.274508,-0.686274c-0.977925,-0.069499 -2.25065,0.176601 -3.137251,0.980391c-0.669644,0.607098 -1.11124,1.390334 -0.980391,1.862743c0.152596,0.550919 0.766232,0.881611 1.568625,0.980391c0.973045,0.119787 2.054497,0.130942 2.647055,-0.392157c0.367488,-0.324412 0.462057,-1.4364 0.098039,-1.764703c-0.424513,-0.382864 -1.073207,-0.539091 -1.764704,-0.588234c-0.586754,-0.041699 -1.214643,0.211101 -1.470586,0.784313c-0.243137,0.544532 0.075483,1.426334 0.490196,1.568625c0.472845,0.162236 1.458966,0.15449 2.254899,-0.392156c0.571447,-0.392469 1.024403,-1.197503 0.882352,-1.666665c-0.102434,-0.338318 -0.796899,-0.630136 -1.568626,-0.490196c-0.824205,0.149457 -1.4283,0.861053 -1.666664,1.568625c-0.258096,0.766147 -0.310309,1.337566 0,1.764704c0.45005,0.619489 1.390237,0.871673 2.352938,0.686274c1.03686,-0.199681 2.153413,-0.853959 2.549016,-1.666664c0.218795,-0.44948 0.132598,-0.781619 -0.294117,-0.882352c-0.572499,-0.135149 -1.370654,0.003424 -2.254899,0.490196c-1.076142,0.59241 -1.41966,0.984188 -1.372548,1.274508c0.049661,0.306025 0.692322,0.432185 1.470586,0.294118c1.287896,-0.228477 2.446085,-0.984765 3.235291,-1.862743c0.563796,-0.627213 0.52025,-0.927332 0.392156,-0.980391c-0.452882,-0.187589 -1.285057,-0.02621 -1.862742,0.588234c-0.633534,0.673848 -1.028693,1.669049 -0.980391,2.156859c0.049259,0.497471 0.50575,0.831557 1.176469,0.686274c1.157762,-0.250782 2.394388,-1.23111 2.843133,-2.254899c0.239403,-0.546185 0.034559,-1.173774 -0.392156,-1.274508c-0.763332,-0.180198 -1.885234,-0.126551 -3.333329,0.196078c-1.906667,0.424797 -2.793946,1.072348 -2.843133,1.666665c-0.032345,0.390821 0.376029,0.783724 1.274508,0.882352c1.656713,0.181861 3.704967,-0.022954 5.39215,-0.882352c1.453943,-0.740593 2.19169,-1.412939 2.156859,-1.764703c-0.013661,-0.137973 -0.629769,-0.22114 -1.372547,0.098039c-1.174434,0.504666 -2.08332,1.608363 -2.549016,2.745095c-0.270577,0.66046 -0.227441,1.152674 0.392157,1.176469c0.807855,0.031025 1.886277,-0.660806 2.843133,-1.568625c0.905243,-0.858851 1.372547,-1.568625 1.372547,-1.862742c0,-0.098039 -0.110827,-0.148277 -0.588234,0c-0.713043,0.221464 -1.664674,0.634108 -2.15686,1.470586c-0.361955,0.615148 -0.253053,1.021457 -0.098039,1.17647c0.310027,0.310026 1.098334,0.263197 1.862742,0c0.912971,-0.314349 1.711642,-0.928554 1.862742,-1.568625c0.112623,-0.477083 -0.073242,-0.844805 -0.490195,-0.980392c-0.567118,-0.184417 -1.014331,-0.126915 -1.176469,0.098039c-0.384544,0.533526 -0.441101,1.368476 -0.490195,2.2549c-0.037951,0.685224 0.080759,1.126101 0.294117,1.176469c0.190833,0.04505 0.657638,-0.037312 1.07843,-0.588235c0.479777,-0.628149 0.783723,-1.454459 0.882352,-2.352938c0.064186,-0.584723 0.09804,-1.07843 0,-1.07843c-0.09804,0 -0.311523,0.579849 -0.588235,1.176469c-0.314149,0.677339 -0.440936,1.365273 -0.490195,1.862743c-0.01932,0.195123 0.118314,0.214444 0.294117,0c0.448212,-0.546729 0.881069,-1.152658 0.980391,-1.764704c0.07852,-0.483866 0.076324,-0.703984 0,-0.588235c-0.290636,0.440759 -0.337646,1.104449 -0.686274,1.764704c-0.596859,1.130373 -1.485724,2.220457 -2.254898,3.137251c-0.534684,0.637301 -0.854324,0.903105 -1.07843,1.176469c-0.087902,0.107223 -0.22853,0.190552 -0.196078,0.098039c0.207792,-0.592369 1.561934,-1.701834 1.176469,-2.156859c-0.06337,-0.074805 -1.018956,0.546513 -1.764704,1.274508c-0.547921,0.534878 -0.882351,1.07843 -0.882351,1.17647c0,0.098039 0.007595,0.290301 0.588234,0.196077c0.612047,-0.099321 1.17902,-0.508625 1.470587,-0.980391c0.162991,-0.263724 -0.009676,-0.336587 -0.09804,-0.294117c-0.565799,0.271937 -0.84734,1.04098 -1.176469,1.666664c-0.24579,0.467253 -0.339098,0.656219 -0.392157,0.784313c-0.037518,0.090576 0,0.196077 0,0.294117c0,0.098039 -0.098039,0.098039 -0.098039,0c0,-0.09804 -0.156184,-0.574228 -0.294117,-1.274508c-0.171568,-0.871046 -0.196078,-1.764703 -0.196078,-2.549016c0,-0.686274 0.090576,-1.138951 0,-1.176469c-0.128094,-0.053059 -0.472585,0.859504 -0.686274,1.764704c-0.159274,0.674696 -0.09804,1.176469 -0.09804,1.470586c0,0.09804 0.101946,0.105492 0.294117,0c0.501122,-0.275089 1.095384,-0.828398 1.372547,-1.568625c0.175294,-0.468162 0.167363,-0.714989 0.09804,-0.784312c-0.138648,-0.138648 -0.784312,0 -1.764704,0c-1.07843,0 -1.854665,0.135968 -1.960782,0.392157c-0.075036,0.181151 0.078186,0.549933 0.588234,0.686274c0.669726,0.179024 1.403468,0.25144 2.254899,0c0.630738,-0.186266 0.869542,-0.600855 0.784312,-0.882352c-0.102434,-0.338318 -0.878684,-0.637194 -1.862742,-0.686274c-0.979174,-0.048837 -1.940807,-0.082232 -2.254899,0.294117c-0.280932,0.336617 -0.263651,0.640678 -0.098039,0.784312c0.234211,0.20313 0.895684,0.320607 1.470586,0.196078c1.157762,-0.250782 1.318521,-0.903385 1.17647,-1.372547c-0.102434,-0.338318 -0.777039,-0.637014 -1.274508,-0.686274c-0.585371,-0.057963 -1.063836,0.243657 -1.274508,0.686274c-0.173725,0.364991 -0.059706,0.859756 0.294117,1.07843c0.527449,0.325981 1.29539,0.321912 2.2549,0.098039c0.815737,-0.190328 1.371264,-0.7605 1.470586,-1.372547c0.094225,-0.580638 -0.265882,-0.978589 -0.784312,-1.078429c-0.770162,-0.148319 -1.689392,-0.154121 -2.352939,0.490195c-0.507198,0.492499 -0.611456,1.30818 -0.392156,1.862742c0.25998,0.657433 1.077493,0.989218 1.960782,1.07843c1.077396,0.108817 2.33075,0.023561 3.333329,-0.686274c1.076486,-0.762161 1.54787,-1.964599 1.470586,-2.745094c-0.049259,-0.497471 -0.605227,-1.462595 -2.058821,-1.568625c-0.498578,-0.036368 -1.120228,0.418019 -1.372547,1.078429c-0.247419,0.647586 -0.194068,1.468086 0.294117,1.862743c0.511445,0.413461 1.337666,0.426128 2.058822,0c0.778175,-0.459821 1.466219,-1.31036 1.666664,-2.254899c0.162817,-0.767227 -0.005174,-1.757157 -0.294117,-1.960782c-0.33042,-0.232854 -1.080756,-0.217536 -1.568625,0.294117c-0.394495,0.413727 -0.677785,1.115743 -0.490195,1.568625c0.159175,0.384283 0.796898,0.630136 1.568624,0.490195c0.824205,-0.149457 1.597591,-0.705497 1.862743,-1.274508c0.211149,-0.453122 0.067083,-1.159666 -0.392157,-1.470586c-0.618271,-0.41859 -1.769381,-0.603404 -3.137251,-0.490196c-1.188633,0.098374 -2.1395,0.739328 -2.549016,1.568625c-0.370884,0.751064 -0.355357,1.464708 0.196078,1.764704c0.544668,0.296314 1.549001,0.529376 2.450977,0.098039c0.690785,-0.330343 1.386206,-0.688742 1.078429,-2.352938c-0.10396,-0.562129 -0.965971,-0.965329 -1.862742,-1.07843c-3.016893,-0.380491 -4.121422,0.305528 -4.607837,0.980391c-0.256363,0.355684 -0.302203,0.887906 -0.098039,1.176469c0.283123,0.400166 0.884011,0.796781 1.666665,0.686274c0.73931,-0.104387 0.862833,-0.790643 0.784312,-1.274508c-0.099321,-0.612047 -0.555961,-1.185895 -1.372547,-1.372547c-1.055651,-0.241296 -2.483917,-0.506009 -3.431368,0.294117c-1.273344,1.075345 -0.87887,2.108256 -0.588234,2.549016c0.381623,0.578746 1.272251,0.764159 2.058821,0.686274c0.617036,-0.061098 1.1179,-0.657227 1.176469,-1.274508c0.140138,-1.476967 -0.624268,-2.1735 -1.274508,-2.450977c-0.831346,-0.354761 -1.942362,-0.45269 -2.450977,-0.098039c-0.514933,0.359056 -0.673385,1.20137 -0.490196,1.862742c0.152596,0.550919 0.778231,0.931204 1.372547,0.980391c0.781641,0.064691 1.381036,-0.233392 1.568625,-0.686274c0.265292,-0.640471 0.229023,-1.41752 -0.098039,-2.156859c-0.143004,-0.323267 -0.264062,-0.437137 -0.392156,-0.490196c-0.090576,-0.037518 -0.052989,-0.103284 -0.098039,-0.294117c-0.050367,-0.213358 -0.16467,-0.492728 -0.196078,-0.686274c-0.049661,-0.306024 -0.145711,-0.570955 -0.196078,-0.784313c-0.022525,-0.095416 0,-0.294117 -0.098039,-0.392156c-0.098039,-0.098039 -0.060521,-0.203541 -0.098039,-0.294117c-0.053059,-0.128094 -0.15856,-0.203541 -0.196078,-0.294117c-0.053059,-0.128094 -0.196078,-0.098039 -0.294117,-0.098039c-0.098039,0 -0.098039,0.098039 -0.098039,0.098039c-0.098039,0 -0.098039,0 -0.196078,0c-0.098039,0 -0.105502,-0.037518 -0.196078,0c-0.128094,0.053058 -0.196078,0.098039 -0.196078,0.098039c0,0.098039 -0.126754,0.028715 -0.196078,0.098039c-0.069324,0.069324 -0.098039,0.098039 -0.098039,0.098039c0,0 -0.083601,0.01697 -0.196078,0.098039c-0.177842,0.128181 -0.126754,0.224793 -0.196078,0.294117c-0.069324,0.069324 -0.196078,0 -0.294117,0.098039c-0.098039,0.098039 -0.098039,0.098039 -0.098039,0.196078c0,0.098039 -0.028715,0.126754 -0.098039,0.196078c-0.069324,0.069324 -0.158561,0.105502 -0.196078,0.196078c-0.053058,0.128094 -0.15856,0.30158 -0.196078,0.392157c-0.053058,0.128094 -0.126754,0.224793 -0.196078,0.294117c-0.069324,0.069324 -0.028715,0.126754 -0.098039,0.196078c-0.069324,0.069324 -0.098039,0.098039 -0.098039,0.098039c0,0 -0.044981,0.067984 -0.098039,0.196078c-0.037518,0.090576 -0.098039,0.294117 -0.098039,0.294117c-0.098039,0.098039 -0.060521,0.203541 -0.098039,0.294117c-0.053058,0.128094 -0.023003,0.211003 -0.098039,0.392156c-0.053058,0.128094 -0.145711,0.276838 -0.196078,0.490196c-0.022525,0.095416 0,0.196078 0,0.294117c0,0.098039 0,0.196078 0,0.294117c0,0.098039 0,0.196078 0,0.294117c0,0.098039 -0.069324,0.224793 0,0.294117c0.069324,0.069324 0.098039,0.098039 0.098039,0.196078c0,0.196078 0.060521,0.203541 0.098039,0.294118c0.053058,0.128094 0.075514,0.1987 0.098039,0.294117c0.050367,0.213358 0.14302,0.264062 0.196078,0.392157c0.037518,0.090576 0.023003,0.211003 0.098039,0.392156c0.053058,0.128095 0.241059,0.264063 0.294117,0.392157c0.037518,0.090577 0.028715,0.224793 0.098039,0.294117c0.069324,0.069324 0.15856,0.203541 0.196078,0.294118c0.053058,0.128094 0.243751,0.178798 0.294117,0.392156c0.022525,0.095417 0.098039,0.196078 0.196078,0.294118c0.098039,0.098039 0.213048,0.279678 0.294117,0.392156c0.128182,0.177842 0.322832,0.224793 0.392156,0.294118c0.069324,0.069324 0.14302,0.166023 0.196078,0.294117c0.037518,0.090576 0.009597,0.178865 0.196078,0.294117c0.083397,0.051542 0.060522,0.105502 0.098039,0.196078c0.106117,0.256188 0.279679,0.409126 0.392156,0.490195c0.177843,0.128181 0.312354,0.263975 0.490196,0.392157c0.112477,0.081069 0.294116,0.294117 0.392156,0.392157c0.098039,0.098039 0.18164,0.213048 0.294117,0.294117c0.177842,0.128181 0.294117,0.196078 0.490195,0.294117c0.196078,0.09804 0.490195,0.294118 0.686274,0.392157c0.196078,0.09804 0.377718,0.213048 0.490195,0.294117c0.177842,0.128181 0.309043,0.121042 0.490196,0.196078c0.128094,0.053059 0.15856,0.105502 0.196078,0.196078c0.053059,0.128094 0.392157,0.392157 0.490195,0.490195c0.09804,0.09804 0.203541,0.158562 0.294118,0.196079c0.128093,0.053057 0.126754,0.126753 0.196078,0.196077c0.069324,0.069324 0.294117,0.09804 0.392156,0.09804c0.196078,0 0.276838,0.14571 0.490195,0.196077c0.190833,0.04505 0.397402,0.05299 0.588235,0.09804c0.213358,0.050367 0.399619,0.15856 0.490195,0.196077c0.128095,0.053059 0.196078,0.09804 0.294117,0.09804c0.196078,0 0.294118,0 0.392157,0c0.09804,0 0.196078,0 0.392157,-0.09804c0.196078,-0.098038 0.28071,-0.21047 0.490195,-0.392157c0.370319,-0.321177 0.490195,-0.490194 0.686274,-0.686273c0.196078,-0.196078 0.472983,-0.401753 0.588235,-0.588235c0.103085,-0.166794 0.098039,-0.294116 0.196078,-0.392156c0.09804,-0.09804 0.166022,-0.241059 0.294117,-0.294118c0.090576,-0.037518 0.18164,-0.115009 0.294117,-0.196078c0.177842,-0.128181 0.294117,-0.196078 0.490195,-0.294117c0.196078,-0.098039 0.301807,-0.077436 0.588235,-0.196078c0.202535,-0.083893 0.264063,-0.241059 0.392157,-0.294117c0.090576,-0.037518 0.196077,-0.09804 0.294117,-0.196078c0.09804,-0.098039 0.294117,-0.196078 0.392157,-0.294117c0.09804,-0.09804 0.196077,-0.294118 0.294117,-0.392157c0.196077,-0.196077 0.263975,-0.312353 0.392157,-0.490195c0.08107,-0.112478 0.165936,-0.410393 0.294117,-0.588235c0.162138,-0.224955 0.249067,-0.397402 0.294117,-0.588234c0.050367,-0.213358 0.243752,-0.374878 0.294117,-0.588235c0.022524,-0.095416 0.044981,-0.166023 0.09804,-0.294117c0.037518,-0.090577 0.044981,-0.166023 0.09804,-0.294117c0.037518,-0.090577 0.044981,-0.166024 0.098038,-0.294118c0.037518,-0.090576 0.143021,-0.166023 0.196079,-0.294117c0.075037,-0.181152 0.075516,-0.29674 0.09804,-0.392157c0.050365,-0.213357 0.146416,-0.28221 0.196077,-0.588234c0.031408,-0.193546 0.09804,-0.392157 0.09804,-0.588235c0,-0.196078 0,-0.294117 0,-0.490195c0,-0.196078 0.098038,-0.294117 0.098038,-0.490196c0,-0.098039 0,-0.196078 0,-0.294117c0,-0.098039 0.075035,-0.309043 0,-0.490196c-0.053057,-0.128093 -0.098038,-0.196078 -0.098038,-0.196078c0,-0.196078 0.030142,-0.312354 -0.09804,-0.490196c-0.08107,-0.112477 -0.069162,-0.131979 -0.294117,-0.294117c-0.177843,-0.128182 -0.294117,-0.196078 -0.490196,-0.294117c-0.196077,-0.098039 -0.490194,-0.196078 -0.686274,-0.294117c-0.196077,-0.098039 -0.472916,-0.243751 -0.686274,-0.294117c-0.286249,-0.067574 -0.481153,-0.146689 -0.882351,-0.196078c-0.291914,-0.035936 -0.674367,-0.146417 -0.980392,-0.196078c-0.290319,-0.047112 -0.686274,0 -0.882352,0c-0.294117,0 -0.686274,0 -0.980391,0c-0.392157,0 -0.686274,0 -1.07843,0c-0.294117,0 -0.588234,0 -0.882352,0c-0.196077,0 -0.362101,-0.044981 -0.490195,-0.098039c-0.090576,-0.037518 -0.20354,0.037518 -0.294117,0c-0.128094,-0.053058 -0.224793,-0.028715 -0.294117,-0.098039c-0.069324,-0.069324 -0.09804,-0.098039 -0.09804,-0.196078c0,-0.098039 -0.178799,-0.24375 -0.392156,-0.294117c-0.095417,-0.022525 -0.09804,0 -0.196078,0c0,0 -0.126755,0.069324 -0.196078,0c-0.069324,-0.069324 -0.126755,-0.028715 -0.196078,-0.098039c-0.069324,-0.069324 0,-0.098039 -0.098039,-0.098039c0,0 0,0 -0.09804,0c0,0 0,-0.098039 -0.098039,-0.098039c-0.09804,0 -0.09804,0 -0.09804,0c-0.098039,0 -0.166023,-0.044981 -0.294117,-0.098039c-0.181152,-0.075036 -0.294117,0 -0.294117,0c-0.09804,0 -0.211004,0.075036 -0.392157,0c-0.128094,-0.053058 -0.196078,-0.098039 -0.294117,-0.098039c-0.098039,0 -0.196078,-0.098039 -0.294117,-0.098039c-0.196078,0 -0.294117,-0.098039 -0.392157,-0.098039c-0.098039,0 -0.196078,0 -0.294117,0c0,0 -0.098039,0 -0.196078,0c-0.098039,0 -0.098039,0 -0.196078,0c-0.098039,0 -0.098039,0 -0.196078,0c-0.098039,0 -0.196078,0 -0.196078,0c-0.098039,0 -0.196078,0 -0.196078,0.098039l-0.098039,0" id="svg_1" stroke-width="1.6" stroke="#FFFFFF" fill="none"/>
  <g fill-rule="evenodd" fill="none" id="Patzcuaro-high-fidelity">
   <g id="2">
    <g id="Page-1">
     <g id="Group-3"/>
     <path fill="#666665" id="Fill-4" d="m11.00439,5.82142c-0.32211,-0.77739 -1.00945,-2.0712 -1.46096,-2.38027c-0.37701,-0.25766 -0.47112,-0.768 -0.20951,-1.1401c0.26104,-0.37101 0.77809,-0.4639 1.1551,-0.20735c1.01842,0.69612 1.88838,2.71203 2.05252,3.10846c0.1731,0.41856 -0.03025,0.89738 -0.45431,1.06823c-0.10308,0.04091 -0.20895,0.06082 -0.31371,0.06082c-0.32714,0 -0.63693,-0.19186 -0.76913,-0.50979z"/>
     <path fill="#666665" id="Fill-1" d="m1.8806,8.2586c0.29802,0.96261 1.85589,4.68149 8.90582,8.80785c1.55003,-0.91009 7.11715,-4.39342 8.73385,-8.35889c0.10699,-0.24328 0.40165,-1.25124 0.40165,-1.87547c0,-2.55887 -2.1091,-4.64058 -4.70163,-4.64058c-1.4929,0 -2.86479,0.68174 -3.76389,1.86995l-0.6655,0.87857l-0.66438,-0.87857c-0.90021,-1.18821 -2.27211,-1.86995 -3.76444,-1.86995c-2.59254,0 -4.7022,2.08171 -4.7022,4.64058c0,0.35994 0.04818,0.73482 0.14285,1.11411l0.07787,0.3124zm8.89406,10.69604l-0.40502,-0.23056c-9.3422,-5.32618 -10.16512,-10.25759 -10.19593,-10.46493c-0.11035,-0.43182 -0.17365,-0.93829 -0.17365,-1.42706c0,-3.46177 2.85358,-6.2794 6.36202,-6.2794c1.68111,0 3.24907,0.63806 4.42882,1.77705c1.17975,-1.13899 2.74771,-1.77705 4.42939,-1.77705c3.50844,0 6.36202,2.81763 6.36202,6.2794c0,0.92004 -0.38037,2.16741 -0.53162,2.5091c-2.08668,5.1205 -9.54947,9.21867 -9.86598,9.39063l-0.41005,0.22282z"/>
    </g>
   </g>
  </g>
 </g>
</svg>
