<?xml version="1.0" encoding="UTF-8"?>
<svg width="22px" height="19px" viewBox="0 0 22 19" version="1.1" xmlns="http://www.w3.org/2000/svg" xmlns:xlink="http://www.w3.org/1999/xlink">
    <!-- Generator: Sketch 48.2 (47327) - http://www.bohemiancoding.com/sketch -->
    <title>2</title>
    <desc>Created with Sketch.</desc>
    <defs></defs>
    <g id="Patzcuaro-high-fidelity" stroke="none" stroke-width="1" fill="none" fill-rule="evenodd" transform="translate(-32.000000, -1887.000000)">
        <g id="2" transform="translate(32.000000, 1887.000000)">
            <g id="Page-1">
                <g id="Group-3" transform="translate(0.000000, 0.155534)"></g>
                <path d="M11.0043898,5.82142407 C10.6822833,5.04403254 9.99493611,3.75022302 9.54342685,3.4411463 C9.16642222,3.18349021 9.07231111,2.67315423 9.33391759,2.30104577 C9.59496389,1.93004312 10.1120148,1.83715423 10.4890194,2.0937045 C11.5074361,2.78981825 12.3774037,4.80572831 12.541538,5.20216481 C12.7146352,5.62071772 12.511288,6.09953783 12.0872278,6.27038704 C11.9841537,6.31130238 11.8782787,6.33120714 11.7735241,6.33120714 C11.4463759,6.33120714 11.1365935,6.13934735 11.0043898,5.82142407 Z" id="Fill-4" fill="#666665"></path>
                <path d="M1.88059769,8.2585963 C2.1786162,9.2212127 3.7364912,12.9400857 10.7864218,17.0664534 C12.3364542,16.1563635 17.9035745,12.6730302 19.520269,8.70755926 C19.6272644,8.46427884 19.9219218,7.45632381 19.9219218,6.83208836 C19.9219218,4.27322063 17.8128245,2.19151429 15.2202875,2.19151429 C13.727394,2.19151429 12.3555005,2.87325238 11.4564032,4.06145608 L10.7909032,4.94003016 L10.1265236,4.06145608 C9.22630602,2.87325238 7.8544125,2.19151429 6.36207917,2.19151429 C3.76954213,2.19151429 1.65988472,4.27322063 1.65988472,6.83208836 C1.65988472,7.1920328 1.70806065,7.56690582 1.80273194,7.94620212 L1.88059769,8.2585963 Z M10.7746579,18.9546413 L10.369644,18.7240778 C1.02743565,13.3978952 0.204523611,8.46649048 0.173713426,8.25914921 C0.0633569444,7.82732646 5.60185186e-05,7.32086085 5.60185186e-05,6.83208836 C5.60185186e-05,3.37031852 2.85363935,0.552688889 6.36207917,0.552688889 C8.04319491,0.552688889 9.61115324,1.19074709 10.7909032,2.3297418 C11.9706532,1.19074709 13.5386116,0.552688889 15.2202875,0.552688889 C18.7287273,0.552688889 21.5823106,3.37031852 21.5823106,6.83208836 C21.5823106,7.75213069 21.2019449,8.99949577 21.0506949,9.34119418 C18.9640051,14.4616942 11.5012181,18.5598635 11.1847134,18.7318185 L10.7746579,18.9546413 Z" id="Fill-1" fill="#666665"></path>
            </g>
        </g>
    </g>
</svg>
