<?xml version="1.0" encoding="UTF-8" standalone="no"?>
<!DOCTYPE svg PUBLIC "-//W3C//DTD SVG 1.1//EN"
"http://www.w3.org/Graphics/SVG/1.1/DTD/svg11.dtd">


<!-- Page 1 -->
<svg x="0" y="0" width="85" height="85" viewBox="0 0 85 85" version="1.1" xmlns="http://www.w3.org/2000/svg" xmlns:xlink="http://www.w3.org/1999/xlink"
style="display: block;margin-left: auto;margin-right: auto;">
<defs>
<clipPath id="c0_1"><path d="M46.6,52l6,-8.8c0.2,-0.4,0.2,-0.8,0,-1.1l-5.4,-8C47,33.9,46.8,33.8,46.6,33.8l0,18.2ZM19.1,56.5c-0.5,0,-1,-0.4,-1,-1l0,-20.9c0,-0.5,-0.4,-0.9,-0.9,-0.9l-1,0c-0.5,0,-0.9,-0.4,-0.9,-1l0,-2.7c0,-0.5,0.4,-1,0.9,-1l7.3,0c0.3,0,0.6,0.2,0.8,0.4L32,40.3c0.1,0.2,0.2,0.2,0.4,0.2c0.1,0,0.2,0,0.3,-0.2L40.5,29.4C40.7,29.2,41,29,41.3,29L49,29c0.3,0,0.6,0.2,0.7,0.5l6.1,9.2c0.1,0.1,0.2,0.2,0.4,0.2c0.1,0,0.3,-0.1,0.4,-0.2l6,-9.2C62.8,29.2,63.1,29,63.4,29l3.4,0c0.8,0,1.2,0.9,0.8,1.6L59.8,42.1c-0.3,0.3,-0.3,0.7,0,1.1l5.6,8.3c0.2,0.2,0.5,0.4,0.8,0.4l1.6,0c0.5,0,1,0.4,1,0.9l0,2.7c0,0.6,-0.5,1,-1,1l-4.2,0c-0.3,0,-0.6,-0.1,-0.8,-0.4L56.6,46.8C56.5,46.7,56.3,46.6,56.2,46.6c-0.2,0,-0.3,0.1,-0.4,0.2l-6.2,9.3c-0.2,0.3,-0.5,0.4,-0.8,0.4l-6.3,0c-0.5,0,-1,-0.4,-1,-1L41.5,38c0,-0.2,-0.2,-0.4,-0.5,-0.4c-0.1,0,-0.2,0,-0.3,0.2L33,48.2c-0.2,0.2,-0.5,0.4,-0.7,0.4c-0.3,0,-0.6,-0.2,-0.8,-0.4L24.1,37.8C24,37.6,23.8,37.5,23.7,37.5c-0.3,0,-0.5,0.2,-0.5,0.5l0,17.5c0,0.6,-0.4,1,-1,1Z" /></clipPath>
<clipPath id="c1_1"><path d="M5.3,62.6c-0.8,0,-1.6,-0.4,-2,-1.4C3,60.7,3,60.2,3.1,59.6c0.1,0,0.1,-0.1,0.2,-0.1l0.5,0.2c0,0,0.1,0.1,0.1,0.2c-0.1,0.3,-0.1,0.7,0.1,1c0.3,0.6,0.8,0.9,1.3,0.9c0.2,0,0.5,-0.1,0.7,-0.2c0.6,-0.3,1.1,-1,0.7,-2C6.5,59.3,6.3,59,5.9,58.8c0,0,-0.1,-0.1,0,-0.2L6,58.2C6.1,58.1,6.1,58.1,6.2,58.1c0.6,0.2,0.9,0.6,1.2,1.2c0.7,1.5,-0.1,2.6,-1.1,3.1C6,62.5,5.6,62.6,5.3,62.6Z" /></clipPath>
<clipPath id="c2_1"><path d="M0.3,50.4C0.2,50.4,0.2,50.3,0.2,50.2L0,48.7C0,48.5,0,48.4,0.1,48.4l4.2,-1c0.1,0,0.2,0.1,0.2,0.2l0.1,0.8c0,0.1,-0.1,0.2,-0.2,0.3L1,49.5c-0.1,0,-0.1,0.1,-0.1,0.3l0,0.2c0,0.2,0,0.3,-0.1,0.3L0.3,50.4Z" /></clipPath>
<clipPath id="c3_1"><path d="M2.6,38.3c0.1,0,0.2,0,0.2,-0.1L3,37.1C3.1,36.6,2.7,36.3,2.3,36.3c-0.1,0,-0.1,0,-0.2,0c-0.4,0,-0.8,0.2,-0.8,0.6L1.1,38c0,0.1,0,0.2,0.1,0.2l1.4,0.1Zm2.5,1.1L1.1,39C1,39,0.9,39,0.9,39.1l0,0.2c0,0,-0.1,0.1,-0.2,0.1L0.2,39.3C0.1,39.3,0,39.3,0,39.2C0.1,38.7,0.3,37.4,0.4,36.8C0.5,35.9,1.3,35.5,2.1,35.5c0.1,0,0.2,0,0.3,0c0.6,0,1.2,0.3,1.4,1c0,0.1,0.1,0.1,0.2,0.1l0.1,0L4.6,36.3c0,0,0.1,0,0.1,-0.1L4.7,36c0,-0.1,0.1,-0.2,0.2,-0.2l0.7,0.1c0.1,0,0.2,0.1,0.2,0.2L5.7,36.5c0,0.1,0,0.1,-0.1,0.1l-1.7,1c-0.1,0,-0.1,0.1,-0.1,0.1L3.7,38.3c0,0.1,0,0.1,0.1,0.2l1.4,0.1c0.1,0,0.2,0.1,0.2,0.2L5.3,39.3c0,0.1,-0.1,0.1,-0.2,0.1Z" /></clipPath>
<clipPath id="c4_1"><path d="M5.4,26C5.1,26,4.7,25.9,4.4,25.7C3.3,25.2,2.6,24,3.3,22.5C3.6,22,4,21.6,4.5,21.4c0.1,0,0.2,0,0.2,0.1l0.1,0.4c0,0.1,0,0.2,-0.1,0.2C4.4,22.3,4.2,22.6,4,22.9C3.6,23.8,4.1,24.6,4.7,25c0.2,0.1,0.5,0.1,0.7,0.1c0.5,0,1,-0.2,1.3,-0.9c0.1,-0.3,0.2,-0.7,0.1,-1C6.8,23.1,6.8,23,6.9,23L7.4,22.8c0.1,0,0.2,0,0.2,0.1c0.1,0.6,0,1.2,-0.2,1.7C6.9,25.6,6.2,26,5.4,26Z" /></clipPath>
<clipPath id="c5_1"><path d="M14.5,16.8c-0.5,0,-1,-0.2,-1.5,-0.7L11.7,14.7c0,0,-0.1,0,-0.1,0c-0.1,0,-0.1,0,-0.1,0l-0.2,0.2l-0.1,0c0,0,-0.1,0,-0.1,0L10.7,14.5c0,-0.1,0,-0.2,0,-0.2l1.2,-1.2c0,0,0.1,0,0.1,0c0.1,0,0.1,0,0.2,0l0.3,0.4c0.1,0.1,0.1,0.2,0,0.2l-0.1,0.2c-0.1,0,-0.1,0.1,0,0.2l1.2,1.3c0.4,0.3,0.7,0.5,1,0.5c0.3,0,0.6,-0.1,0.9,-0.4C16.1,15,16,14.3,15.4,13.7L14.1,12.4c0,-0.1,0,-0.1,-0.1,-0.1c0,0,-0.1,0,-0.1,0.1l-0.1,0.1c0,0,-0.1,0,-0.1,0c-0.1,0,-0.1,0,-0.2,0L13.2,12.1c-0.1,-0.1,-0.1,-0.2,0,-0.2l1.2,-1.2l0.1,0c0,0,0.1,0,0.1,0l0.3,0.4c0.1,0.1,0.1,0.2,0,0.2l-0.1,0.2c0,0,-0.1,0.1,0,0.2L16.1,13c1,1.1,0.9,2.2,0,3.1c-0.5,0.4,-1,0.7,-1.6,0.7Z" /></clipPath>
<clipPath id="c6_1"><path d="M23.8,9.2c0,0,-0.1,-0.1,-0.1,-0.1L22.2,5.8C22.1,5.8,22.1,5.7,22,5.7L21.9,5.8l-0.1,0c0,0,0,0.1,-0.1,0.1c0,0,-0.1,-0.1,-0.1,-0.1L21.4,5.3c0,0,0,-0.1,0.1,-0.2L22.3,4.6c0,0,0.1,0,0.1,0c0,0,0.1,0,0.1,0.1l1.9,3.9c0.1,0.1,0,0.2,0,0.3L23.9,9.1c0,0.1,0,0.1,-0.1,0.1Z" /></clipPath>
<clipPath id="c7_1"><path d="M34,6.1c0,0,-0.1,0,-0.1,-0.1L33.3,2.8c0,-0.1,0,-0.1,-0.1,-0.1L32.9,2.8c-0.1,0,-0.1,0.1,-0.1,0.1l0,0.2c0.1,0.1,0,0.1,-0.1,0.2L32.4,3.4C32.3,3.4,32.3,3.3,32.2,3.2L32.1,2.4c0,-0.1,0,-0.2,0.1,-0.2L34.8,1.5c0,0,0.1,0,0.1,0c0,0,0.1,0.1,0.1,0.2l0.1,0.8c0,0.1,0,0.2,-0.1,0.2L34.7,2.8C34.6,2.8,34.6,2.7,34.5,2.6l0,-0.1c0,-0.1,0,-0.1,-0.1,-0.1L34.1,2.5C34,2.5,34,2.6,34,2.6l0.6,3.2C34.6,5.9,34.5,6,34.5,6L34.1,6.1C34,6.1,34,6.1,34,6.1Z" /></clipPath>
<clipPath id="c8_1"><path d="M46.7,4.9c0.9,0,1.2,-0.8,1.3,-1.6C48.1,2.4,47.9,1.4,46.9,1.3c-0.1,0,-0.1,0,-0.2,0C45.8,1.3,45.5,2.2,45.5,3c-0.1,0.9,0,1.8,1.1,1.9c0,0,0.1,0,0.1,0Zm0.1,0.9c-0.1,0,-0.2,0,-0.3,0C45.1,5.7,44.6,4.5,44.6,3.3c0,-0.2,0,-0.3,0.1,-0.4c0.1,-1.3,0.7,-2.5,2,-2.5c0.1,0,0.2,0,0.3,0c1.3,0.1,1.8,1.3,1.8,2.5l0,0.1c0,0.1,0,0.3,0,0.4c-0.2,1.2,-0.7,2.4,-2,2.4Z" /></clipPath>
<clipPath id="c9_1"><path d="M60.5,7.6C60.1,7.6,59.8,7.5,59.4,7.4C58.6,7.1,58.1,6.6,58.1,5.8c0,-0.1,0,-0.1,0.1,-0.1L58.7,5.6c0.1,0,0.2,0.1,0.2,0.2c0,0.4,0.4,0.8,0.8,0.9c0.3,0.1,0.5,0.2,0.7,0.2c0.2,0,0.5,-0.1,0.6,-0.3C61.2,6.2,60.8,5.9,60.3,5.6C59.5,5.1,58.8,4.6,59.2,3.7C59.5,3.2,59.9,3.1,60.4,3.1c0.3,0,0.7,0,1,0.2c0.6,0.2,1.1,0.6,1.2,1.3c0,0,0,0.1,-0.1,0.1L62,4.8C61.9,4.8,61.9,4.7,61.9,4.7C61.8,4.4,61.5,4.1,61.1,3.9C60.9,3.8,60.7,3.8,60.5,3.8C60.3,3.8,60.1,3.9,60,4.1c-0.2,0.3,0.2,0.6,0.7,0.8c0.8,0.5,1.5,1.1,1.1,2C61.5,7.4,61,7.6,60.5,7.6Z" /></clipPath>
<clipPath id="c10_1"><path d="M20.5,77.9c0,0,-0.1,0,-0.1,0L19.9,77.6c0,0,-0.1,-0.1,0,-0.2l2,-2.7c0.1,0,0.1,-0.1,0,-0.2L21.6,74.4C21.5,74.3,21.5,74.3,21.5,74.3c-0.1,0,-0.1,0,-0.2,0.1l-0.1,0.1c0,0.1,-0.1,0.1,-0.1,0.1c0,0,-0.1,0,-0.1,0L20.6,74.3c-0.1,0,-0.1,-0.1,-0.1,-0.2l0.6,-0.7c0,0,0.1,-0.1,0.1,-0.1c0.1,0,0.1,0,0.1,0.1l3.1,1.7c0.1,0.1,0.1,0.1,0,0.2L23.9,76c-0.1,0.1,-0.1,0.1,-0.2,0.1l-0.1,0L23.2,75.8c0,0,-0.1,-0.1,0,-0.2l0.1,-0.1c0,-0.1,0,-0.1,-0.1,-0.2L22.9,75.1l-0.1,0c0,0,-0.1,0,-0.1,0.1l-2,2.6c-0.1,0.1,-0.1,0.1,-0.2,0.1Z" /></clipPath>
<clipPath id="c11_1"><path d="M32.5,82.5c-0.2,0,-0.4,0,-0.6,-0.1C31,82.2,30.3,81.4,30.6,80.2L31,78.8c0,-0.1,0,-0.2,-0.1,-0.2l-0.1,0c-0.1,0,-0.2,-0.1,-0.1,-0.2L30.8,78c0,0,0.1,-0.1,0.1,-0.1l0.1,0l1.3,0.4c0,0,0.1,0.1,0.1,0.1l-0.1,0.4c-0.1,0.1,-0.1,0.1,-0.2,0.1l-0.2,0c-0.1,0,-0.1,0,-0.1,0.1l-0.4,1.4c-0.2,0.7,0.1,1.2,0.7,1.4c0.1,0,0.2,0,0.3,0c0.5,0,0.9,-0.3,1,-0.9l0.4,-1.4c0,-0.1,0,-0.2,-0.1,-0.2l-0.2,0c0,0,-0.1,-0.1,-0.1,-0.2l0.1,-0.4c0.1,0,0.1,-0.1,0.2,-0.1L35,79c0.1,0,0.2,0.1,0.1,0.1L35,79.5c0,0.1,0,0.1,-0.1,0.1l-0.2,0c-0.1,0,-0.1,0,-0.2,0.1l-0.3,1.4c-0.3,1,-0.9,1.4,-1.7,1.4Z" /></clipPath>
<clipPath id="c12_1"><path d="M45.1,83.3l1.3,0c0.6,-0.1,0.9,-0.5,0.8,-0.8c0,-0.3,-0.3,-0.7,-0.8,-0.7c-0.1,0,-0.1,0,-0.1,0l-1.4,0.1c-0.1,0,-0.1,0.1,-0.1,0.2l0.1,1.1c0,0.1,0.1,0.1,0.2,0.1Zm-0.8,2.3c-0.1,0,-0.2,-0.1,-0.2,-0.2L43.8,82.1C43.8,82,43.7,82,43.6,82l-0.2,0c-0.1,0,-0.2,-0.1,-0.2,-0.1l0,-0.5c0,-0.1,0.1,-0.1,0.2,-0.1c0.5,-0.1,2.1,-0.2,2.8,-0.2c0.1,0,0.1,0,0.2,0c1.1,0,1.8,0.6,1.8,1.3c0.1,0.5,-0.2,1.1,-0.9,1.4c-0.1,0,-0.2,0.1,-0.1,0.2l0.5,0.4c0,0,0.1,0,0.1,0l0.3,0c0.1,0,0.2,0.1,0.2,0.2l0.1,0.5c0,0.1,-0.1,0.2,-0.2,0.2l-0.6,0c0,0,-0.1,0,-0.1,0L46,84.1C45.9,84,45.9,84,45.8,84l-0.7,0.1c-0.1,0,-0.1,0,-0.1,0.1l0.1,1.1c0,0.1,-0.1,0.2,-0.2,0.2l-0.6,0.1Z" /></clipPath>
<clipPath id="c13_1"><path d="M57.3,82.5c0,0,-0.1,0,-0.1,-0.1L55.8,79.1C55.8,79,55.7,79,55.7,79c-0.1,0,-0.1,0,-0.1,0l-0.2,0c-0.1,0,-0.2,0,-0.2,-0.1L55,78.5c0,-0.1,0,-0.2,0.1,-0.2l1.1,-0.4c0.1,0,0.2,0.1,0.2,0.1L58,82.1c0.1,0.1,0,0.2,-0.1,0.2l-0.5,0.2c0,0,-0.1,0,-0.1,0Z" /></clipPath>
<clipPath id="c14_1"><path d="M66.5,76.4c-0.3,0,-0.5,-0.1,-0.7,-0.2c-0.1,0,-0.2,-0.1,-0.1,-0.2l0.2,-0.4c0,0,0.1,-0.1,0.1,-0.1c0.1,0,0.1,0,0.1,0c0.1,0.1,0.3,0.1,0.4,0.1c0.3,0,0.6,-0.1,0.9,-0.3c0.4,-0.3,0.7,-0.7,0.4,-1.1C67.7,74.1,67.6,74,67.4,74c-0.2,0,-0.5,0.1,-0.8,0.3c-0.4,0.2,-0.9,0.4,-1.3,0.4c-0.3,0,-0.6,-0.1,-0.9,-0.5c-0.5,-0.7,0,-1.5,0.6,-1.9c0.4,-0.3,0.8,-0.5,1.3,-0.5c0.1,0,0.3,0,0.5,0.1c0.1,0,0.1,0.1,0.1,0.2l-0.2,0.4c-0.1,0,-0.1,0.1,-0.2,0.1c-0.1,0,-0.1,0,-0.2,0c-0.3,0,-0.6,0,-0.8,0.2c-0.5,0.4,-0.6,0.7,-0.4,1c0.1,0.1,0.2,0.2,0.3,0.2c0.2,0,0.5,-0.2,0.8,-0.3c0.4,-0.3,0.9,-0.5,1.3,-0.5c0.4,0,0.7,0.2,1,0.5c0.6,0.8,0.1,1.6,-0.7,2.2c-0.4,0.3,-0.9,0.5,-1.3,0.5Z" /></clipPath>
<clipPath id="c15_1"><path d="M75.9,68.8c0,0,0,-0.1,0,-0.1L73.2,66.6c-0.1,0,-0.1,0,-0.2,0l-0.2,0.3c0,0.1,0,0.2,0.1,0.3L73,67.3c0.1,0,0.1,0.1,0,0.2l-0.2,0.4c-0.1,0,-0.1,0,-0.1,0c-0.1,0,-0.1,0,-0.1,0L71.9,67.4C71.8,67.3,71.8,67.2,71.8,67.1l1.9,-2.9c0,0,0.1,0,0.1,0c0.1,0,0.1,0,0.1,0l0.7,0.6c0.1,0,0.1,0.1,0.1,0.2l-0.3,0.4c0,0,-0.1,0,-0.1,0c0,0,-0.1,0,-0.1,0L74.1,65.3c0,0,-0.1,0,-0.1,0c-0.1,0,-0.1,0,-0.1,0.1l-0.2,0.3c-0.1,0,-0.1,0.1,0,0.2L76.3,68c0.1,0,0.1,0.2,0.1,0.2l-0.3,0.5c-0.1,0,-0.1,0.1,-0.2,0.1Z" /></clipPath>
<clipPath id="c16_1"><path d="M82.2,58.1c0,0,-0.1,0,-0.1,-0.1L78.9,56.5c0,-0.1,0,-0.1,-0.1,-0.1c0,0,-0.1,0.1,-0.1,0.2l-0.1,0.2c0,0.1,0,0.1,-0.1,0.1l-0.1,0L78,56.7c-0.1,0,-0.1,-0.2,-0.1,-0.3l0.4,-1.3c0,0,0,-0.1,0.1,-0.1l0.1,0l3.9,2c0.1,0,0.1,0.1,0.1,0.2l-0.2,0.7c0,0.1,-0.1,0.2,-0.1,0.2Z" /></clipPath>
<clipPath id="c17_1"><path d="M82.4,47.2c0,0,-0.1,0,-0.1,0C80.9,47.1,79.7,46.3,79.7,44.7c0,-0.1,0,-0.1,0,-0.2c0,-0.6,0.3,-1.2,0.7,-1.6c0.1,0,0.1,-0.1,0.2,-0.1c0,0,0.1,0.1,0.1,0.1l0.4,0.4c0,0.1,0,0.1,0,0.2c-0.3,0.3,-0.5,0.7,-0.5,1c-0.1,1.2,0.8,1.7,1.7,1.8c0.1,0,0.1,0,0.2,0c0.8,0,1.6,-0.4,1.7,-1.6c0,-0.3,-0.1,-0.8,-0.3,-1.1c-0.1,0,-0.1,-0.1,0,-0.2L84.3,43c0.1,0,0.1,0,0.2,0c0,0,0.1,0,0.1,0.1c0.4,0.4,0.5,0.9,0.5,1.5c0,0.1,0,0.1,0,0.2c-0.1,1.7,-1.4,2.4,-2.7,2.4Z" /></clipPath>
<clipPath id="c18_1"><path d="M81.5,34.3c0.2,0,0.4,-0.1,0.6,-0.1c0.7,-0.2,1.4,-0.7,1.1,-1.8C83,31.7,82.5,31.4,82,31.4c-0.2,0,-0.4,0.1,-0.6,0.1c-0.7,0.2,-1.4,0.7,-1.1,1.8c0.1,0.7,0.6,1,1.2,1Zm0,0.8c-0.9,0,-1.7,-0.4,-2,-1.6C79.1,31.9,80.1,31,81.2,30.7c0.3,-0.1,0.5,-0.1,0.8,-0.1c0.8,0,1.6,0.4,1.9,1.6c0.4,1.6,-0.5,2.5,-1.6,2.8c-0.3,0.1,-0.5,0.1,-0.8,0.1Z" /></clipPath>
<clipPath id="c19_1"><path d="M75.1,22.9c-0.6,0,-1,-0.4,-1.4,-0.9C73.4,21.4,73.2,20.8,73.4,20.2c0.1,-0.1,0.1,-0.1,0.2,-0.1l0.1,0L74,20.3c0.1,0.1,0.1,0.1,0.1,0.2c-0.1,0.3,0,0.7,0.2,1.1c0.2,0.3,0.5,0.5,0.7,0.5c0.1,0,0.2,0,0.3,-0.1c0.3,-0.2,0.1,-0.7,-0.1,-1.1C74.8,20,74.5,19.2,75.4,18.6c0.2,-0.2,0.4,-0.3,0.7,-0.3c0.5,0,1,0.5,1.4,1.1c0.4,0.7,0.6,1.4,0.2,2.1c0,0,-0.1,0,-0.1,0c-0.1,0,-0.1,0,-0.1,0L77.1,21.3C77,21.2,77,21.1,77,21.1c0.2,-0.4,0.1,-0.9,-0.1,-1.3C76.7,19.4,76.4,19.2,76.1,19.2c-0.1,0,-0.2,0,-0.3,0.1c-0.3,0.2,-0.2,0.7,0,1.2c0.4,0.8,0.7,1.7,-0.1,2.2c-0.2,0.2,-0.4,0.2,-0.6,0.2Z" /></clipPath>
<clipPath id="c20_1"><path d="M13.8,71.8c-0.4,0,-0.8,-0.1,-1.1,-0.4c-0.6,-0.6,-0.6,-1.6,0,-2.2c0.3,-0.3,0.7,-0.4,1.1,-0.4c0.3,0,0.7,0.1,1,0.4c0.6,0.6,0.6,1.6,0,2.2c-0.3,0.3,-0.7,0.4,-1,0.4Z" /></clipPath>
<clipPath id="c21_1"><path d="M68.8,15.3c-0.4,0,-0.8,-0.2,-1.1,-0.5c-0.6,-0.6,-0.6,-1.5,0,-2.1c0.3,-0.3,0.7,-0.5,1.1,-0.5c0.3,0,0.7,0.2,1,0.5c0.6,0.6,0.6,1.5,0,2.1c-0.3,0.3,-0.7,0.5,-1,0.5Z" /></clipPath>

<style type="text/css"><![CDATA[

.g1_1{
fill: #FFF;
}


]]></style>

</defs>
<g clip-path="url(#c0_1)">
<path d="M7.6,64.2l68.8,0l0,-42.8l-68.8,0l0,42.8Z" class="g1_1" />
</g>
<g clip-path="url(#c1_1)">
<path d="M-4.5,70.3l19.8,0l0,-19.9l-19.8,0l0,19.9Z" class="g1_1" />
</g>
<g clip-path="url(#c2_1)">
<path d="M-7.5,58.1l19.7,0l0,-18.4l-19.7,0l0,18.4Z" class="g1_1" />
</g>
<g clip-path="url(#c3_1)">
<path d="M-7.5,47.1l20.9,0l0,-19.3l-20.9,0l0,19.3Z" class="g1_1" />
</g>
<g clip-path="url(#c4_1)">
<path d="M-4.5,33.6l19.8,0l0,-19.8l-19.8,0l0,19.8Z" class="g1_1" />
</g>
<g clip-path="url(#c5_1)">
<path d="M3.1,24.4l21.3,0l0,-21.3L3.1,3.1l0,21.3Z" class="g1_1" />
</g>
<g clip-path="url(#c6_1)">
<path d="M13.8,16.8l18.3,0L32.1,-3L13.8,-3l0,19.8Z" class="g1_1" />
</g>
<g clip-path="url(#c7_1)">
<path d="M24.4,13.8l18.4,0L42.8,-6L24.4,-6l0,19.8Z" class="g1_1" />
</g>
<g clip-path="url(#c8_1)">
<path d="M37,13.5l19.4,0l0,-20.7L37,-7.2l0,20.7Z" class="g1_1" />
</g>
<g clip-path="url(#c9_1)">
<path d="M50.4,15.3l19.9,0l0,-19.8l-19.9,0l0,19.8Z" class="g1_1" />
</g>
<g clip-path="url(#c10_1)">
<path d="M12.2,85.6l19.9,0l0,-19.9l-19.9,0l0,19.9Z" class="g1_1" />
</g>
<g clip-path="url(#c11_1)">
<path d="M22.9,90.1l19.9,0l0,-19.8l-19.9,0l0,19.8Z" class="g1_1" />
</g>
<g clip-path="url(#c12_1)">
<path d="M35.5,93.2l20.5,0L56,73.4l-20.5,0l0,19.8Z" class="g1_1" />
</g>
<g clip-path="url(#c13_1)">
<path d="M47.4,90.1l18.3,0l0,-19.8l-18.3,0l0,19.8Z" class="g1_1" />
</g>
<g clip-path="url(#c14_1)">
<path d="M56.5,84l19.9,0l0,-19.8l-19.9,0l0,19.8Z" class="g1_1" />
</g>
<g clip-path="url(#c15_1)">
<path d="M64.2,76.4l19.8,0L84,56.5l-19.8,0l0,19.9Z" class="g1_1" />
</g>
<g clip-path="url(#c16_1)">
<path d="M70.3,65.7l19.8,0l0,-18.3l-19.8,0l0,18.3Z" class="g1_1" />
</g>
<g clip-path="url(#c17_1)">
<path d="M72,54.8l20.8,0l0,-19.6L72,35.2l0,19.6Z" class="g1_1" />
</g>
<g clip-path="url(#c18_1)">
<path d="M71.8,42.8l19.9,0l0,-19.9l-19.9,0l0,19.9Z" class="g1_1" />
</g>
<g clip-path="url(#c19_1)">
<path d="M65.7,30.6l19.9,0l0,-19.9l-19.9,0l0,19.9Z" class="g1_1" />
</g>
<g clip-path="url(#c20_1)">
<path d="M4.6,79.4l18.3,0l0,-18.3l-18.3,0l0,18.3Z" class="g1_1" />
</g>
<g clip-path="url(#c21_1)">
<path d="M59.6,22.9l18.3,0l0,-18.3l-18.3,0l0,18.3Z" class="g1_1" />
</g>

</svg>
